<?xml version="1.0" encoding="utf-8"?>
<!-- Generator: Adobe Illustrator 21.0.0, SVG Export Plug-In . SVG Version: 6.00 Build 0)  -->
<svg version="1.1" id="Layer_1" xmlns="http://www.w3.org/2000/svg" xmlns:xlink="http://www.w3.org/1999/xlink" x="0px" y="0px"
	 viewBox="0 0 147 136" style="enable-background:new 0 0 147 136;" xml:space="preserve">
<style type="text/css">
	.st0{fill:none;stroke:#000000;stroke-width:18;stroke-miterlimit:10;}
	.st1{fill:#FFFFFF;}
	.st2{font-family:'Impact';}
	.st3{font-size:10px;}
</style>
<path class="st0" d="M93,7v99.5c0,0-72.4-40.1-74.5-99.5v99.5"/>
<g>
	<path d="M87,111.1c-7.9,6.6-16.1,13.9-28.7,13.9c-13,0-22.3-8.1-22.3-19.2c0-10.3,9.9-19.2,23.6-19.2c11.5,0,20,7.7,27.4,13.9
		c7.9-6.6,16.1-13.9,28.7-13.9c13.2,0,22.3,8.1,22.3,19.2c0,10.3-9.9,19.2-23.5,19.2C103,125,94.5,117.3,87,111.1z M59.5,94.3
		c-7.7,0-13.6,5.3-13.6,11.4c0,6.6,5.6,11.4,13.2,11.4C67.8,117.2,68.4,94.3,59.5,94.3z M128.2,105.8c0-6.6-5.6-11.4-13.2-11.4
		c-8.8,0-9.4,22.9-0.5,22.9C122.4,117.2,128.2,111.9,128.2,105.8z"/>
</g>
<g>
	<path d="M87,112.1c-7.9,6.6-16.1,13.9-28.7,13.9c-13,0-22.3-8.1-22.3-19.2c0-10.3,9.9-19.2,23.6-19.2c11.5,0,20,7.7,27.4,13.9
		c7.9-6.6,16.1-13.9,28.7-13.9c13.2,0,22.3,8.1,22.3,19.2c0,10.3-9.9,19.2-23.5,19.2C103,126,94.5,118.3,87,112.1z M59.5,95.3
		c-7.7,0-13.6,5.3-13.6,11.4c0,6.6,5.6,11.4,13.2,11.4C67.8,118.2,68.4,95.3,59.5,95.3z M128.2,106.8c0-6.6-5.6-11.4-13.2-11.4
		c-8.8,0-9.4,22.9-0.5,22.9C122.4,118.2,128.2,112.9,128.2,106.8z"/>
</g>
<text transform="matrix(1 0 0 1 81.5869 106.9878)" class="st1 st2 st3">21</text>
</svg>
